<svg width="160" height="602" viewBox="0 0 160 602" fill="none" xmlns="http://www.w3.org/2000/svg">
    <path
        d="M635.084 6.11184C640.2 16.2408 644.551 26.7547 648.9 37.2617C655.314 52.7569 661.721 68.2371 670.563 82.4449C676.825 92.5123 684.921 102.121 694.43 109.188V0.515625H694.555V601.997H300.723C320.143 576.305 327.395 548.678 292.022 513.381C268.302 489.718 235.579 478.911 203.421 468.291C197.744 466.417 192.084 464.548 186.495 462.615C156.938 452.381 128.224 439.713 100.744 424.765C64.967 405.306 29.8903 380.434 11.5625 344.056C-6.7652 307.679 -2.97859 257.554 29.4392 232.895C52.6099 215.264 85.1108 214.148 112.899 222.851C150.948 234.76 184.005 261.229 216.992 287.643C258.852 321.161 300.598 354.588 352.287 358.054C399.472 361.212 444.247 332.6 473.091 295.118C501.51 258.206 517.299 213.417 532.795 169.462L533.511 167.43C549.239 122.825 565.834 77.3659 595.795 40.7751C603.731 31.0844 612.579 22.1865 622.151 14.1474C626.098 10.8317 630.456 8.1711 635.084 6.11184Z"
        fill="#808080" fill-opacity="0.1" />
</svg>